<svg xmlns="http://www.w3.org/2000/svg" viewBox="0 0 24 24" fill="none" stroke="currentColor" stroke-width="2" stroke-linecap="round" stroke-linejoin="round">
  <defs>
    <linearGradient id="gradient" x1="0%" y1="0%" x2="100%" y2="100%">
      <stop offset="0%" stop-color="#4f46e5" />
      <stop offset="100%" stop-color="#9333ea" />
    </linearGradient>
  </defs>
  <circle cx="12" cy="12" r="10" fill="url(#gradient)" />
  <path d="M12 1.5a5.25 5.25 0 0 0-5.25 5.25v3a3 3 0 0 0-3 3v6.75a3 3 0 0 0 3 3h10.5a3 3 0 0 0 3-3v-6.75a3 3 0 0 0-3-3v-3A5.25 5.25 0 0 0 12 1.5Zm-1.5 7.5v-3a1.5 1.5 0 0 1 3 0v3h-3Z" fill="white" />
</svg>
